<svg xmlns="http://www.w3.org/2000/svg" width="440" height="213" viewBox="0 0 440 213" xmlns:xlink="http://www.w3.org/1999/xlink" ><defs><path id="a" d="M41.184 20.584l-4.522-5.348 4.27-4.564h-2.996l-3.542 4.032h-.042v-4.032H32v9.912h2.352V16.02h.028l3.682 4.564h3.122zm2.492-4.284h2.954c0-.728-.462-1.33-1.372-1.33-.882 0-1.526.616-1.582 1.33zm5.068.882c0 .182 0 .378-.014.546h-5.054c.07.77.84 1.316 1.666 1.316.728 0 1.232-.308 1.54-.728l1.596 1.008c-.658.952-1.75 1.484-3.164 1.484-2.1 0-3.836-1.33-3.836-3.682 0-2.282 1.652-3.738 3.766-3.738 2.058 0 3.5 1.414 3.5 3.794zm3.276-.882h2.954c0-.728-.462-1.33-1.372-1.33-.882 0-1.526.616-1.582 1.33zm5.068.882c0 .182 0 .378-.014.546H52.02c.07.77.84 1.316 1.666 1.316.728 0 1.232-.308 1.54-.728l1.596 1.008c-.658.952-1.75 1.484-3.164 1.484-2.1 0-3.836-1.33-3.836-3.682 0-2.282 1.652-3.738 3.766-3.738 2.058 0 3.5 1.414 3.5 3.794zm9.184-.112c0 1.946-1.218 3.71-3.318 3.71-.854 0-1.68-.364-2.114-.966h-.028v4.13h-2.296V13.612H60.7v.854h.042c.42-.56 1.204-1.05 2.226-1.05 2.03 0 3.304 1.708 3.304 3.654zm-2.226 0c0-.896-.546-1.778-1.638-1.778-1.036 0-1.68.91-1.68 1.792 0 .91.644 1.792 1.68 1.792 1.092 0 1.638-.896 1.638-1.806zm9.03-2.702c-.686-.644-1.764-.98-2.8-.98-1.33 0-2.898.672-2.898 2.338 0 1.316 1.064 1.806 2.03 2.03.952.224 1.386.364 1.386.798 0 .448-.448.602-.826.602-.672 0-1.302-.336-1.708-.784l-1.288 1.358c.728.7 1.904 1.078 3.038 1.078 1.428 0 2.982-.616 2.982-2.38 0-1.358-1.162-1.89-2.226-2.128-.896-.196-1.274-.308-1.274-.7 0-.406.434-.56.868-.56.56 0 1.092.28 1.456.63l1.26-1.302zm11.802-.756h-2.436l-1.386 4.48h-.042l-1.554-4.48h-2.548l2.912 6.86-.224.574c-.224.602-.462.938-1.176.938-.224 0-.518-.056-.742-.126l-.252 1.932c.336.084.826.154 1.26.154 1.75 0 2.506-.854 3.066-2.31l3.122-8.022zm8.274 3.458c0 2.282-1.764 3.738-3.878 3.738-2.1 0-3.864-1.456-3.864-3.738s1.764-3.682 3.864-3.682c2.114 0 3.878 1.4 3.878 3.682zm-2.212 0c0-.896-.588-1.778-1.666-1.778-1.078 0-1.638.882-1.638 1.778s.574 1.806 1.652 1.806c1.078 0 1.652-.91 1.652-1.806zm10.472 3.514v-6.972h-2.296v3.766c0 .798-.434 1.498-1.232 1.498-.84 0-1.036-.7-1.036-1.484v-3.78h-2.31v4.312c0 1.4.658 2.856 2.534 2.856.98 0 1.778-.546 2.1-1.162h.028v.966h2.212zm9.408-2.8v-.238h-.294c-1.008 0-2.142.126-2.142.952 0 .532.532.714.994.714.924 0 1.442-.56 1.442-1.428zm-3.052-1.974l-1.162-1.246c.812-.77 1.974-1.176 3.108-1.176 2.338 0 3.206 1.148 3.206 3.682v3.514h-2.1v-.742h-.042c-.35.574-1.148.91-1.974.91-1.106 0-2.534-.546-2.534-2.184 0-2.016 2.45-2.352 4.48-2.352v-.112c0-.686-.546-1.008-1.26-1.008-.658 0-1.302.322-1.722.714zm18.158-2.198h-2.38l-1.218 4.41h-.028l-1.288-4.41h-2.31l-1.246 4.41h-.042l-1.204-4.41h-2.478l2.408 6.972h2.31l1.344-4.34h.028l1.372 4.34h2.31l2.422-6.972zm5.012 4.172v-.238h-.294c-1.008 0-2.142.126-2.142.952 0 .532.532.714.994.714.924 0 1.442-.56 1.442-1.428zm-3.052-1.974l-1.162-1.246c.812-.77 1.974-1.176 3.108-1.176 2.338 0 3.206 1.148 3.206 3.682v3.514h-2.1v-.742h-.042c-.35.574-1.148.91-1.974.91-1.106 0-2.534-.546-2.534-2.184 0-2.016 2.45-2.352 4.48-2.352v-.112c0-.686-.546-1.008-1.26-1.008-.658 0-1.302.322-1.722.714zm11.55.952l2.688-3.15h-2.786l-2.226 2.828h-.042V10h-2.31v10.584h2.31v-3.346h.042l2.282 3.346h2.842l-2.8-3.822zm5.488-.462h2.954c0-.728-.462-1.33-1.372-1.33-.882 0-1.526.616-1.582 1.33zm5.068.882c0 .182 0 .378-.014.546h-5.054c.07.77.84 1.316 1.666 1.316.728 0 1.232-.308 1.54-.728l1.596 1.008c-.658.952-1.75 1.484-3.164 1.484-2.1 0-3.836-1.33-3.836-3.682 0-2.282 1.652-3.738 3.766-3.738 2.058 0 3.5 1.414 3.5 3.794z"/><filter id="b" width="200%" height="200%" x="-50%" y="-50%" filterUnits="objectBoundingBox"><feGaussianBlur stdDeviation="1.5" in="SourceAlpha" result="shadowBlurInner1"/><feOffset dy="1" in="shadowBlurInner1" result="shadowOffsetInner1"/><feComposite in="shadowOffsetInner1" in2="SourceAlpha" operator="arithmetic" k2="-1" k3="1" result="shadowInnerInner1"/><feColorMatrix values="0 0 0 0 0 0 0 0 0 0 0 0 0 0 0 0 0 0 0.5 0" in="shadowInnerInner1"/></filter></defs><g fill="none" fill-rule="evenodd"><path fill="#FADA6C" d="M216.22 25c.312-.084.655-.02.973.122.77.345 1.623.67 2.414.902V10.977l-.232-3.08c0-3.847-3.13-6.897-7.002-6.897-3.582 0-6.58 2.686-7 6.13-4.998.32-8.98 4.443-8.98 9.488 0 .08-.002.16 0 .24 0 0-.008 0-.01.002.478 4.73 3.204 6.05 6.892 5.87.78-.038 1.425.434 1.46 1.4.026.774-.635 1.403-1.415 1.403-5.112 0-7.585-.998-9.47-6.522-1.367 1.65-2.193 3.75-2.193 6.04 0 .68.073 1.33.206 1.96-1.863 1.74-3.033 4.2-3.033 6.94 0 .83.117 1.62.315 2.39-1.963 2.37-3.142 5.4-3.142 8.71 0 2.34.59 4.54 1.628 6.46-.43 1.09-.68 2.28-.68 3.52 0 3.62 2.04 6.76 5.03 8.37.88 4.03 3.53 7.39 7.11 9.24 2-2.58 5.14-4.26 8.66-4.26.78 0 1.42.63 1.42 1.41s-.63 1.41-1.41 1.41c-2.37 0-4.51 1.03-5.99 2.66 1.37 2.05 3.49 3.54 5.99 4.06 1.23 1.04 3 1.67 4.74 1.67 3.87 0 7.14-4.35 7.14-8.19v-7.61h-.2c-4.16 0-7.87-2.32-9.71-5.73-1.86 3.33-5.49 5.59-9.59 5.59-.78 0-1.44-.63-1.44-1.4s.61-1.4 1.39-1.4c4.46 0 8.09-3.6 8.09-8.03 0-.77.64-1.4 1.42-1.4.4 0 .75.16 1.01.42.35.26.57.66.57 1.12 0 4.43 3.82 8.03 8.28 8.03h.21v-30c-.79-1.38-2.07-2.59-3.48-3.4-.23-.13-.37-.32-.48-.54-.34-.392-.43-.97-.16-1.44.18-.302.43-.504.74-.59zm-4.06 17.74c-.17.348-.47.594-.812.71-.342.115-.73.1-1.08-.07-4-1.956-8.854-.314-10.823 3.658-.345.696-1.192.982-1.893.64-.7-.343-.988-1.185-.643-1.88 1.79-3.623 5.37-5.802 9.16-6.025-2.04-2.537-3.3-6.295-1.44-10.202.33-.7 1.19-.98 1.89-.63.7.34.96 1.17.64 1.88-1.79 3.99.12 7.8 4.12 9.76.26.13.47.34.61.58.4.42.53 1.05.26 1.6zm43.815 2.29c0-3.306-1.195-6.338-3.186-8.704.2-.762.31-1.558.31-2.383 0-2.736-1.19-5.196-3.08-6.932.13-.63.21-1.28.21-1.96 0-2.29-1.48-7.84-2.86-9.48-.73 3.83-2.25 5.58-4.9 6.96-.7.37-1.63.34-2.1-.48-.52-.91.66-1.55 1.28-2.03 1.87-1.46 2.91-3.7 3.36-6.4 0-.08.02-.16.01-.24-.67-4.51-3.78-7.04-8.67-6.23-.43-3.44-3.42-6.13-7.06-6.13-3.93 0-6.96 3.05-6.96 6.9v4.63c1.18-.12 2.19-.63 2.93-1.8.37-.59 1.27-.75 1.83-.42.6.36.72 1.05.39 1.67-1.31 2.45-3.18 3.32-5.16 3.12v32.15c4.35 0 8.14-3.6 8.14-8.03 0-.46.22-.87.57-1.12.26-.25.61-.41 1.01-.41.79 0 1.43.63 1.43 1.41 0 4.43 3.68 8.03 8.2 8.03.79 0 1.43.63 1.43 1.41s-.64 1.41-1.43 1.41c-4.16 0-7.8-2.18-9.69-5.51-1.87 3.41-5.33 5.8-9.67 5.8V65.1c1.19-1.31 2.82-2.305 4.7-2.803.68-.183 1.39.212 1.57.88.18.668-.22 1.357-.91 1.54-3 .796-4.97 3.317-5.37 6.174v.49c0 3.85 3.07 8.2 7 8.2 1.76 0 3.34-.63 4.58-1.66 4.61-.06 7.1-3 7.52-5.85-1.5-1.63-2.74-1.45-5.15-1.45-.8 0-1.44-.63-1.44-1.4 0-.77.64-1.4 1.43-1.4 3.58 0 4.69-.46 6.71 2.13 3.53-.81 6.02-1.83 6.9-6.53 3.04-1.61 5.1-4.75 5.1-8.37 0-1.24-.25-2.43-.7-3.52 1.05-1.92 1.65-4.12 1.65-6.45zm-14.68-10.162c-.642.455-1.54.314-2.003-.314-2.65-3.586-7.788-4.39-11.45-1.794-.244.173-.526.26-.806.265-.567.165-1.2-.022-1.567-.517-.24-.315-.32-.69-.26-1.046.06-.355.28-.66.57-.915 2.59-2.24 5.3-5.33 3.15-8.438-.45-.65-.2-1.63.4-2.03.65-.44 1.42-.24 1.91.37 2.42 3.02 2.01 5.56-.24 8.09 3.95-.57 8.08.97 10.58 4.35.46.63.32 1.5-.32 1.96z"/><ellipse cx="90.5" cy="120.5" fill="#0E8C8C" rx="90.5" ry="90.5"/><path fill="#FFF" d="M72.086 62.628L70.42 61.06c-.42.588-1.162 1.008-2.1 1.008-1.652 0-2.814-1.232-2.814-3.038 0-1.75 1.19-3.038 2.856-3.038.756 0 1.554.294 2.002.91l1.624-1.624c-.826-.952-2.324-1.456-3.71-1.456-3.024 0-5.376 2.03-5.376 5.208 0 3.108 2.282 5.236 5.334 5.236 1.666 0 2.982-.63 3.85-1.638zm5.012-1.428v-.238h-.294c-1.008 0-2.142.126-2.142.952 0 .532.532.714.994.714.924 0 1.442-.56 1.442-1.428zm-3.052-1.974l-1.162-1.246c.812-.77 1.974-1.176 3.108-1.176 2.338 0 3.206 1.148 3.206 3.682V64h-2.1v-.742h-.042c-.35.574-1.148.91-1.974.91-1.106 0-2.534-.546-2.534-2.184 0-2.016 2.45-2.352 4.48-2.352v-.112c0-.686-.546-1.008-1.26-1.008-.658 0-1.302.322-1.722.714zm11.34-5.936l-.154 1.82c-.168-.056-.406-.098-.63-.098-.84 0-1.022.672-1.022 1.316v.7h1.554v1.722H83.58V64h-2.296v-5.25H80.01v-1.722h1.274v-.672c0-1.708.672-3.206 2.996-3.206.392 0 .798.042 1.106.14zm5.096 0l-.154 1.82c-.168-.056-.406-.098-.63-.098-.84 0-1.022.672-1.022 1.316v.7h1.554v1.722h-1.554V64H86.38v-5.25h-1.274v-1.722h1.274v-.672c0-1.708.672-3.206 2.996-3.206.392 0 .798.042 1.106.14zm2.464 6.426H95.9c0-.728-.462-1.33-1.372-1.33-.882 0-1.526.616-1.582 1.33zm5.068.882c0 .182 0 .378-.014.546h-5.054c.07.77.84 1.316 1.666 1.316.728 0 1.232-.308 1.54-.728l1.596 1.008c-.658.952-1.75 1.484-3.164 1.484-2.1 0-3.836-1.33-3.836-3.682 0-2.282 1.652-3.738 3.766-3.738 2.058 0 3.5 1.414 3.5 3.794zm3.92-5.796c0-.7-.588-1.26-1.316-1.26-.742 0-1.316.588-1.316 1.26 0 .686.574 1.26 1.316 1.26.728 0 1.316-.546 1.316-1.26zM101.766 64v-6.972H99.47V64h2.296zm8.708 0v-4.312c0-1.4-.672-2.856-2.548-2.856-.966 0-1.764.546-2.086 1.162h-.028v-.966h-2.226V64h2.31v-3.78c0-.798.42-1.498 1.232-1.498.826 0 1.036.7 1.036 1.47V64h2.31zm3.584-4.284h2.954c0-.728-.462-1.33-1.372-1.33-.882 0-1.526.616-1.582 1.33zm5.068.882c0 .182 0 .378-.014.546h-5.054c.07.77.84 1.316 1.666 1.316.728 0 1.232-.308 1.54-.728l1.596 1.008c-.658.952-1.75 1.484-3.164 1.484-2.1 0-3.836-1.33-3.836-3.682 0-2.282 1.652-3.738 3.766-3.738 2.058 0 3.5 1.414 3.5 3.794z"/><g transform="translate(22 75)"><path stroke="#FFF" stroke-width="2" d="M111.74 68.422V33.85L81.97 16.563 52.2 33.85v34.572L81.97 85.71z" stroke-linecap="round" stroke-linejoin="round"/><path fill="#FFBA32" d="M107.975 66.75V36.36L81.808 21.167 55.64 36.362V66.75l26.17 15.192"/><path stroke="#FFF" stroke-width="2" d="M77.383 83.845v16.118-16.118zm8.895 0v16.118-16.118zm25.767-45.76l14.837-6.298-14.837 6.298zm-3.812-6.35l14.837-6.296-14.837 6.29zM82.466.04v16.117V.04zm42.554 77.592l-13.67-8.54 13.67 8.54zM21.34 79.078l-7.546 20.73 7.546-20.73z" stroke-linecap="round" stroke-linejoin="round"/><ellipse cx="111.274" cy="67.79" fill="#0E8C8C" rx="10.665" ry="10.605"/><path fill="#FFF" d="M108.704 63.602h-1.66v9.087h1.274v-7.42h.025l4.813 7.42h1.61V63.6h-1.275v7.265h-.02M86.8 108.098c0 2.616-1.92 4.476-4.513 4.476-2.58 0-4.488-1.86-4.488-4.476 0-2.652 1.9-4.452 4.48-4.452 2.59 0 4.51 1.8 4.51 4.452zm-1.285 0c0-1.86-1.248-3.408-3.228-3.408-1.956 0-3.204 1.548-3.204 3.408 0 1.896 1.26 3.408 3.205 3.408 1.968 0 3.228-1.512 3.228-3.408zM137.6 25.74c0 2.616-1.92 4.476-4.512 4.476-2.58 0-4.488-1.86-4.488-4.476 0-2.652 1.908-4.452 4.488-4.452 2.592 0 4.512 1.8 4.512 4.452zm-1.284 0c0-1.86-1.248-3.408-3.228-3.408-1.956 0-3.204 1.548-3.204 3.408 0 1.896 1.26 3.408 3.204 3.408 1.968 0 3.228-1.512 3.228-3.408z"/><path stroke="#FFF" stroke-width="2" d="M.052 50.936l19.86-27.49 32.13 10.5v33.98l-32.13 10.5z" stroke-linecap="round" stroke-linejoin="round"/><path fill="#FFBA32" d="M5.195 51.044l15.76-21.816 25.502 8.333v26.97l-25.5 8.34"/><path stroke="#FFF" stroke-width="2" d="M23.168 33.566L11.152 51.38l12.016-17.814zm19.907 7.104v21.49-21.49z" stroke-linecap="round" stroke-linejoin="round"/><g transform="translate(9.96 18.02)"><ellipse cx="10.665" cy="10.605" fill="#0E8C8C" rx="10.665" ry="10.605"/><path fill="#FFF" d="M8.095 6.417h-1.66v9.087H7.71V8.086h.023l4.813 7.418h1.61V6.417H12.88v7.264h-.026"/></g><g transform="translate(10.418 67.523)"><ellipse cx="10.665" cy="10.605" fill="#0E8C8C" rx="10.665" ry="10.605"/><path fill="#FFF" d="M8.095 6.417h-1.66v9.087H7.71V8.086h.023l4.813 7.418h1.61V6.417H12.88v7.264h-.026"/></g><g transform="translate(71.454 10.203)"><ellipse cx="10.665" cy="10.605" fill="#0E8C8C" rx="10.665" ry="10.605"/><path fill="#FFF" d="M8.095 6.417h-1.66v9.087H7.71V8.086h.023l4.813 7.418h1.61V6.417H12.88v7.264h-.026"/></g></g><ellipse cx="348.5" cy="120.5" fill="#005B98" rx="90.5" ry="90.5"/><path fill="#FFF" d="M397.177 75.744h-1.306v7.17h1.01V77.06h.02l3.79 5.854h1.27v-7.17h-1v5.732h-.02l-3.75-5.732zm6.513 7.17h1.002v-3.28h3.626v3.28h1.013v-7.17h-1.01v2.998h-3.62v-2.998h-1v7.17zm11.086 1.35h-2.51l1.664-1.62c.448-.442.824-.89.824-1.55 0-.954-.766-1.453-1.62-1.453-.875 0-1.534.58-1.657 1.36l.688.12c.086-.51.44-.89.962-.89.506 0 .91.35.91.89 0 .44-.252.77-.563 1.09l-2.04 2.03v.68h3.342v-.63zM279.87 105h1.004v-3.28h3.625V105h1.01v-7.17h-1.01v2.997h-3.63V97.83h-1.01V105zm14.615-3.595c0 2.208-1.62 3.777-3.808 3.777-2.177 0-3.788-1.57-3.788-3.777 0-2.24 1.61-3.758 3.78-3.758 2.19 0 3.81 1.52 3.81 3.758zm-1.083 0c0-1.57-1.054-2.877-2.725-2.877-1.65 0-2.704 1.307-2.704 2.877 0 1.6 1.064 2.876 2.704 2.876 1.66 0 2.725-1.27 2.725-2.87zm19.7 82.152c0 2.208-1.62 3.777-3.808 3.777-2.177 0-3.788-1.57-3.788-3.777 0-2.24 1.61-3.758 3.788-3.758 2.188 0 3.808 1.51 3.808 3.75zm-1.084 0c0-1.57-1.053-2.877-2.724-2.877-1.65 0-2.704 1.307-2.704 2.877 0 1.6 1.063 2.876 2.704 2.876 1.66 0 2.724-1.276 2.724-2.876zm2.45 3.595h1.004v-3.28h3.626v3.28h1.012v-7.17h-1.012v2.997h-3.626v-3h-1.003v7.17zm23.634-3.595c0 2.208-1.62 3.777-3.808 3.777-2.177 0-3.788-1.57-3.788-3.777 0-2.24 1.61-3.758 3.788-3.758 2.188 0 3.808 1.51 3.808 3.75zm-1.084 0c0-1.57-1.053-2.877-2.724-2.877-1.65 0-2.704 1.307-2.704 2.877 0 1.6 1.063 2.876 2.704 2.876 1.66 0 2.724-1.276 2.724-2.876zm2.45 3.595h1.004v-3.28h3.626v3.28h1.012v-7.17h-1.012v2.997h-3.626v-3h-1.003v7.17z"/><path stroke="#FFF" stroke-width="2" d="M410.835 121.087V98.29l-19.57-11.397-19.57 11.398v22.8l19.57 11.4z" stroke-linecap="round" stroke-linejoin="round"/><path fill="#53C8ED" d="M406.844 118.818V100.94L391.494 92l-15.348 8.94v17.878l15.35 8.94"/><path stroke="#FFF" stroke-width="2" d="M390.253 95.437l13.42 8.715-13.42-8.715zm1.242-19.33v10.628-10.628zm-39.378 55.083v14.547-14.546zM314 166.276v10.557m25-10.557v10.557M390 124l13.856-8L390 124zm-52.665-14.79l13.054-18.126 21.12 6.923v22.404l-21.13 6.93z" stroke-linecap="round" stroke-linejoin="round"/><path fill="#53C8ED" d="M342 109.084l9.675-13.432 15.653 5.13v16.604l-15.653 5.13"/><path stroke="#FFF" stroke-width="2" d="M331.064 135.39l20.618 10.752-13.12 20.306h-12.184" stroke-linecap="round" stroke-linejoin="round"/><path stroke="#FFF" stroke-width="2" d="M321.86 135.39l-20.617 10.752 13.12 20.306h12.184" stroke-linecap="round" stroke-linejoin="round"/><path stroke="#FFF" stroke-width="2" d="M301.46 146.07v-21.5L287 107.845m66.687-7.257l-5.878 8.09 5.87-8.09z" stroke-linecap="round" stroke-linejoin="round"/><path fill="#53C8ED" d="M322.304 140.184l-14.832 7.684 10.168 14.884h17.99l10.167-14.884s-11.273-6.146-15.977-7.684c-4.704-1.54-7.516 0-7.516 0z"/><path fill="#FFF" d="M319.402 64h-2.66l-.77-1.946h-3.836L311.408 64h-2.604l4.158-9.912h2.324L319.402 64zm-4.088-3.864l-1.232-3.402-1.26 3.402h2.492zM327.494 64h-2.114v-.91h-.028c-.448.7-1.358 1.106-2.282 1.106-2.1 0-3.318-1.764-3.318-3.71s1.26-3.654 3.29-3.654c1.022 0 1.736.476 2.128.938h.028v-4.354h2.296V64zm-2.198-3.5c0-.882-.644-1.792-1.68-1.792-1.092 0-1.652.882-1.652 1.778 0 .91.56 1.806 1.652 1.806 1.036 0 1.68-.882 1.68-1.792zm5.866-.784h2.954c0-.728-.462-1.33-1.372-1.33-.882 0-1.526.616-1.582 1.33zm5.068.882c0 .182 0 .378-.014.546h-5.054c.07.77.84 1.316 1.666 1.316.728 0 1.232-.308 1.54-.728l1.596 1.008c-.658.952-1.75 1.484-3.164 1.484-2.1 0-3.836-1.33-3.836-3.682 0-2.282 1.652-3.738 3.766-3.738 2.058 0 3.5 1.414 3.5 3.794zM344.546 64v-4.312c0-1.4-.672-2.856-2.548-2.856-.966 0-1.764.546-2.086 1.162h-.028v-.966h-2.226V64h2.31v-3.78c0-.798.42-1.498 1.232-1.498.826 0 1.036.7 1.036 1.47V64h2.31zm9.128-3.514c0 2.282-1.764 3.738-3.878 3.738-2.1 0-3.864-1.456-3.864-3.738s1.764-3.682 3.864-3.682c2.114 0 3.878 1.4 3.878 3.682zm-2.212 0c0-.896-.588-1.778-1.666-1.778-1.078 0-1.638.882-1.638 1.778s.574 1.806 1.652 1.806c1.078 0 1.652-.91 1.652-1.806zm9.03-2.702c-.686-.644-1.764-.98-2.8-.98-1.33 0-2.898.672-2.898 2.338 0 1.316 1.064 1.806 2.03 2.03.952.224 1.386.364 1.386.798 0 .448-.448.602-.826.602-.672 0-1.302-.336-1.708-.784l-1.288 1.358c.728.7 1.904 1.078 3.038 1.078 1.428 0 2.982-.616 2.982-2.38 0-1.358-1.162-1.89-2.226-2.128-.896-.196-1.274-.308-1.274-.7 0-.406.434-.56.868-.56.56 0 1.092.28 1.456.63l1.26-1.302zm3.738-2.982c0-.7-.588-1.26-1.316-1.26-.742 0-1.316.588-1.316 1.26 0 .686.574 1.26 1.316 1.26.728 0 1.316-.546 1.316-1.26zM364.062 64v-6.972h-2.296V64h2.296zm8.708 0v-4.312c0-1.4-.672-2.856-2.548-2.856-.966 0-1.764.546-2.086 1.162h-.028v-.966h-2.226V64h2.31v-3.78c0-.798.42-1.498 1.232-1.498.826 0 1.036.7 1.036 1.47V64h2.31zm3.584-4.284h2.954c0-.728-.462-1.33-1.372-1.33-.882 0-1.526.616-1.582 1.33zm5.068.882c0 .182 0 .378-.014.546h-5.054c.07.77.84 1.316 1.666 1.316.728 0 1.232-.308 1.54-.728l1.596 1.008c-.658.952-1.75 1.484-3.164 1.484-2.1 0-3.836-1.33-3.836-3.682 0-2.282 1.652-3.738 3.766-3.738 2.058 0 3.5 1.414 3.5 3.794z"/><g transform="translate(343 84.5)"><ellipse cx="8.393" cy="8.352" fill="#005B98" rx="8.393" ry="8.352"/><path fill="#FFF" d="M6.37 5.054H5.064v7.156h1.002V6.368h.02l3.788 5.842h1.266V5.054h-1.002v5.72h-.02"/></g><g transform="translate(343 119.152)"><ellipse cx="8.393" cy="8.352" fill="#005B98" rx="8.393" ry="8.352"/><path fill="#FFF" d="M6.37 5.054H5.064v7.156h1.002V6.368h.02l3.788 5.842h1.266V5.054h-1.002v5.72h-.02"/></g><g transform="translate(318 124.152)"><ellipse cx="8.344" cy="8.302" fill="#005B98" rx="8.344" ry="8.302"/><path fill="#FFF" d="M12.596 8.75c0-2.234-1.62-3.75-3.808-3.75C6.61 5 5 6.516 5 8.75c0 2.203 1.61 3.77 3.788 3.77 2.187 0 3.808-1.567 3.808-3.77zm-1.084 0c0 1.597-1.063 2.87-2.724 2.87-1.64 0-2.704-1.273-2.704-2.87 0-1.567 1.053-2.87 2.704-2.87 1.67 0 2.724 1.303 2.724 2.87z"/></g><g transform="translate(402 90.152)"><ellipse cx="8.393" cy="8.352" fill="#005B98" rx="8.393" ry="8.352"/><path fill="#FFF" d="M6.306 5H5v7.156h1.003V6.314h.02l3.788 5.842h1.27V5h-1v5.72h-.02"/></g><g transform="translate(382 122)"><ellipse cx="8.393" cy="8.352" fill="#005B98" rx="8.393" ry="8.352"/><path fill="#FFF" d="M6.37 5.054H5.064v7.156h1.002V6.368h.02l3.788 5.842h1.266V5.054h-1.002v5.72h-.02"/></g><path stroke="#0E8C8C" d="M186 16h-20" stroke-linecap="square"/><path stroke="#005B98" d="M276 16h-20" stroke-linecap="square"/><use fill="#333435" xlink:href="#a"/><use fill="#000" filter="url(#b)" xlink:href="#a"/><path fill="#333435" d="M299.326 20.584v-9.912h-3.458l-2.156 6.356h-.056l-2.254-6.356H288v9.912h2.254l-.056-7.014h.042l2.506 7.014h1.68l2.576-7.014h.042l-.056 7.014h2.338zm6.034-2.8v-.238h-.294c-1.008 0-2.142.126-2.142.952 0 .532.532.714.994.714.924 0 1.442-.56 1.442-1.428zm-3.052-1.974l-1.162-1.246c.812-.77 1.974-1.176 3.108-1.176 2.338 0 3.206 1.148 3.206 3.682v3.514h-2.1v-.742h-.042c-.35.574-1.148.91-1.974.91-1.106 0-2.534-.546-2.534-2.184 0-2.016 2.45-2.352 4.48-2.352v-.112c0-.686-.546-1.008-1.26-1.008-.658 0-1.302.322-1.722.714zm11.55.952l2.688-3.15h-2.786l-2.226 2.828h-.042V10h-2.31v10.584h2.31v-3.346h.042l2.282 3.346h2.842l-2.8-3.822zm5.488-.462h2.954c0-.728-.462-1.33-1.372-1.33-.882 0-1.526.616-1.582 1.33zm5.068.882c0 .182 0 .378-.014.546h-5.054c.07.77.84 1.316 1.666 1.316.728 0 1.232-.308 1.54-.728l1.596 1.008c-.658.952-1.75 1.484-3.164 1.484-2.1 0-3.836-1.33-3.836-3.682 0-2.282 1.652-3.738 3.766-3.738 2.058 0 3.5 1.414 3.5 3.794zm6.79-2.814c-.686-.644-1.764-.98-2.8-.98-1.33 0-2.898.672-2.898 2.338 0 1.316 1.064 1.806 2.03 2.03.952.224 1.386.364 1.386.798 0 .448-.448.602-.826.602-.672 0-1.302-.336-1.708-.784L325.1 19.73c.728.7 1.904 1.078 3.038 1.078 1.428 0 2.982-.616 2.982-2.38 0-1.358-1.162-1.89-2.226-2.128-.896-.196-1.274-.308-1.274-.7 0-.406.434-.56.868-.56.56 0 1.092.28 1.456.63l1.26-1.302zm11.802-.756h-2.436l-1.386 4.48h-.042l-1.554-4.48h-2.548l2.912 6.86-.224.574c-.224.602-.462.938-1.176.938-.224 0-.518-.056-.742-.126l-.252 1.932c.336.084.826.154 1.26.154 1.75 0 2.506-.854 3.066-2.31l3.122-8.022zm8.274 3.458c0 2.282-1.764 3.738-3.878 3.738-2.1 0-3.864-1.456-3.864-3.738s1.764-3.682 3.864-3.682c2.114 0 3.878 1.4 3.878 3.682zm-2.212 0c0-.896-.588-1.778-1.666-1.778-1.078 0-1.638.882-1.638 1.778s.574 1.806 1.652 1.806c1.078 0 1.652-.91 1.652-1.806zm10.472 3.514v-6.972h-2.296v3.766c0 .798-.434 1.498-1.232 1.498-.84 0-1.036-.7-1.036-1.484v-3.78h-2.31v4.312c0 1.4.658 2.856 2.534 2.856.98 0 1.778-.546 2.1-1.162h.028v.966h2.212zm10.654-6.216c-.686-.644-1.764-.98-2.8-.98-1.33 0-2.898.672-2.898 2.338 0 1.316 1.064 1.806 2.03 2.03.952.224 1.386.364 1.386.798 0 .448-.448.602-.826.602-.672 0-1.302-.336-1.708-.784l-1.288 1.358c.728.7 1.904 1.078 3.038 1.078 1.428 0 2.982-.616 2.982-2.38 0-1.358-1.162-1.89-2.226-2.128-.896-.196-1.274-.308-1.274-.7 0-.406.434-.56.868-.56.56 0 1.092.28 1.456.63l1.26-1.302zm3.598 6.216V10h-2.324v10.584h2.324zm3.668-4.284h2.954c0-.728-.462-1.33-1.372-1.33-.882 0-1.526.616-1.582 1.33zm5.068.882c0 .182 0 .378-.014.546h-5.054c.07.77.84 1.316 1.666 1.316.728 0 1.232-.308 1.54-.728l1.596 1.008c-.658.952-1.75 1.484-3.164 1.484-2.1 0-3.836-1.33-3.836-3.682 0-2.282 1.652-3.738 3.766-3.738 2.058 0 3.5 1.414 3.5 3.794zm3.276-.882h2.954c0-.728-.462-1.33-1.372-1.33-.882 0-1.526.616-1.582 1.33zm5.068.882c0 .182 0 .378-.014.546h-5.054c.07.77.84 1.316 1.666 1.316.728 0 1.232-.308 1.54-.728l1.596 1.008c-.658.952-1.75 1.484-3.164 1.484-2.1 0-3.836-1.33-3.836-3.682 0-2.282 1.652-3.738 3.766-3.738 2.058 0 3.5 1.414 3.5 3.794zm9.184-.112c0 1.946-1.218 3.71-3.318 3.71-.854 0-1.68-.364-2.114-.966h-.028v4.13H392.3V13.612h2.184v.854h.042c.42-.56 1.204-1.05 2.226-1.05 2.03 0 3.304 1.708 3.304 3.654zm-2.226 0c0-.896-.546-1.778-1.638-1.778-1.036 0-1.68.91-1.68 1.792 0 .91.644 1.792 1.68 1.792 1.092 0 1.638-.896 1.638-1.806zm10.724-3.458h-2.436l-1.386 4.48h-.042l-1.554-4.48h-2.548l2.912 6.86-.224.574c-.224.602-.462.938-1.176.938-.224 0-.518-.056-.742-.126l-.252 1.932c.336.084.826.154 1.26.154 1.75 0 2.506-.854 3.066-2.31l3.122-8.022z"/></g></svg>